<svg xmlns="http://www.w3.org/2000/svg" xmlns:xlink="http://www.w3.org/1999/xlink" version="1.1" viewBox="86 360 112 80" width="112" height="80"><defs/><g><path xmlns="http://www.w3.org/2000/svg" transform="translate(0, 0)" fill="none" stroke="white" paint-order="fill stroke markers" d=" M 59 398.74165062358486 L 60 397.42636889098833 L 61 396.1251996734677 L 62 394.8421578925942 L 63 393.5812025354491 L 64 392.34622443867056 L 65 391.14103428278645 L 66 389.96935083387973 L 67 388.8347894688671 L 68 387.74085101979784 L 69 386.69091097159554 L 70 385.6882090465741 L 71 384.73583920786604 L 72 383.83674011260973 L 73 382.99368604435233 L 74 382.2092783526483 L 75 381.48593742626787 L 76 380.825895224782 L 77 380.2311883915705 L 78 379.7036519695017 L 79 379.24491373867687 L 80 378.85638919370933 L 81 378.5392771760377 L 82 378.29455617474935 L 83 378.12298130732927 L 84 378.0250819896497 L 85 378.001160302391 L 86 378.05129005893326 L 87 378.17531657759633 L 88 378.37285715892915 L 89 378.6433022665774 L 90 378.9858174080847 L 91 379.3993457098241 L 92 379.88261117811504 L 93 380.43412263646246 L 94 381.05217832676976 L 95 381.734871160328 L 96 382.4800946023781 L 97 383.28554917208965 L 98 384.14874953789854 L 99 385.0670321863106 L 100 386.03756364050827 L 101 387.0573492034002 L 102 388.1232421981366 L 103 389.23195367757694 L 104 390.380062572751 L 105 391.5640262489982 L 106 392.7801914372129 L 107 394.0248055064672 L 108 395.2940280432258 L 109 396.5839427014263 L 110 397.8905692868584 L 111 399.2098760385545 L 112 400.53779206929624 L 113 401.87021992685004 L 114 403.20304823717214 L 115 404.5321643905714 L 116 405.8534672316844 L 117 407.1628797141076 L 118 408.45636148063704 L 119 409.7299213303002 L 120 410.97962953370927 L 121 412.2016299587362 L 122 413.39215196909447 L 123 414.5475220591123 L 124 415.6641751887975 L 125 416.7386657842173 L 126 417.7676783692509 L 127 418.7480377959092 L 128 419.6767190416534 L 129 420.5508565434836 L 130 421.36775303999434 L 131 422.1248878941147 L 132 422.81992487085137 L 133 423.4507193460362 L 134 424.0153249238343 L 135 424.5119994425937 L 136 424.9392103505046 L 137 425.29563943448085 L 138 425.58018688767294 L 139 425.7919747030604 L 140 425.930349382653 L 141 425.9948839539413 L 142 425.9853792873741 L 143 425.9018647107977 L 144 425.7445979189612 L 145 425.5140641783667 L 146 425.21097482991877 L 147 424.83626509399204 L 148 424.39109118469105 L 149 423.87682674220594 L 150 423.2950585942727 L 151 422.64758185981594 L 152 421.9363944098836 L 153 421.1636907029638 L 154 420.33185501370684 L 155 419.44345407594534 L 156 418.50122916271346 L 157 417.5080876277038 L 158 416.4670939342608 L 159 415.3814601995935 L 160 414.2545362833828 L 161 413.08979945136736 L 162 411.89084364580214 L 163 410.6613683958967 L 164 409.4051674024515 L 165 408.1261168319164 L 166 406.82816335599034 L 167 405.5153119736686 L 168 404.191613653314 L 169 402.86115283288325 L 170 401.52803481687926 L 171 400.1963731089166 L 172 398.87027671898784 L 173 397.55383748459565 L 174 396.2511174448724 L 175 394.96613630664666 L 176 393.70285904113115 L 177 392.4651836495049 L 178 391.2569291351389 L 179 390.0818237195803 L 180 388.9434933386551 L 181 387.8454504541861 L 182 386.79108321584954 L 183 385.7836450066121 L 184 384.82624440400826 L 185 383.9218355882321 L 186 383.07320922664263 L 187 382.2829838628075 L 188 381.5535978366572 L 189 380.8873017606799 L 190 380.286151575373 L 191 379.75200220537977 L 192 379.2865018358854 L 193 378.8910868269342 L 194 378.5669772813596 L 195 378.315173280003 L 196 378.13645179583864 L 197 378.0313642965252 L 198 378.0002350427831 L 199 378.0431600878472 L 200 378.1600069810821 L 201 378.350415176676 L 202 378.61379714614924 L 203 378.9493401912483 L 204 379.3560089516284 L 205 379.8325485995879 L 206 380.3774887119979 L 207 380.9891478074777 L 208 381.66563853481773 L 209 382.40487349663914 L 210 383.2045716903218 L 211 384.0622655463252 L 212 384.97530854218496 L 213 385.9408833686917 L 214 386.9560106230533 L 215 388.017558002218 L 216 389.12224996798955 L 217 390.26667785411377 L 218 391.44731038414716 L 219 392.6605045676556 L 220 393.9025169411205 L 221 395.16951511886674 L 222 396.45758961837197 L 223 397.7627659234673 L 224 399.08101674820796 L 225 400.40827446357116 L 226 401.7404436486385 L 227 403.0734137275327 L 228 404.40307165311776 L 229 405.7253145983241 L 230 407.03606261593825 L 231 408.33127122779445 L 232 409.6069439045212 L 233 410.8591443973365 L 234 412.0840088838394 L 235 413.27775789032074 L 236 414.4367079538057 L 237 415.55728298784277 L 238 416.63602531696915 L 239 417.66960634580414 L 240 418.65483682984933 L 241 419.5886767163048 L 242 420.46824452453467 L 243 421.2908262372389 L 244 422.0538836748956 L 245 422.7550623276337 L 246 423.3921986203699 L 247 423.96332658879226 L 248 424.4666839455906 L 249 424.9007175182162 L 250 425.26408804139146 L 251 425.5556742895815 L 252 425.7745765366769 L 253 425.92011933221204 L 254 425.9918535855526 L 255 425.98955795162107 L 256 425.91323951388534 L 257 425.76313376250124 L 258 425.5397038676785 L 259 425.24363925051017 L 260 424.87585345567754 L 261 424.43748133259237 L 262 423.9298755336766 L 263 423.35460234058223 L 264 422.71343683123246 L 265 422.0083574025949 L 266 421.24153966608833 L 267 420.41534973445977 L 268 419.53233692084524 L 269 418.5952258725429 L 270 417.6069081637708 L 271 416.5704333733497 L 272 415.48899967484397 L 273 414.3659439681937 L 274 413.2047315832896 L 275 412.0089455872608 L 276 410.7822757284703 L 277 409.5285070513309 L 278 408.25150821707376 L 279 406.95521956650714 L 280 405.6436409615979 L 281 404.32081944339376 L 282 402.990836744368 L 283 401.65779669371955 L 284 400.32581255449105 L 285 398.99899433157753 L 286 397.6814360897882 L 287 396.37720332109365 L 288 395.0903204000384 L 289 393.82475816602584 L 290 392.584421670793 L 291 391.3731381288814 L 292 390.1946451082845 L 293 389.05257899771027 L 294 387.9504637860462 L 295 386.89170018864706 L 296 385.87955515399966 L 297 384.91715178314104 L 298 384.00745969293735 L 299 383.15328585295634 L 300 382.35726592420934 L 301 381.621856126487 L 302 380.9493256593837 L 303 380.3417497003962 L 304 379.801003001702 L 305 379.3287541053754 L 306 378.92646019489064 L 307 378.59536259879843 L 308 378.3364829604508 L 309 378.1506200855912 L 310 378.0383474775392 L 311 378.0000115675737 L 312 378.03573064597526 L 313 378.1453944970268 L 314 378.3286647390979 L 315 378.5849758687642 L 316 378.9135370057393 L 317 379.31333433323545 L 318 379.7831342262233 L 319 380.3214870579369 L 320 380.9267316728804 L 321 381.5970005125319 L 322 382.3302253779312 L 323 383.1241438113678 L 324 383.97630607747976 L 325 384.8840827222204 L 326 385.8446726863701 L 327 386.8551119485578 L 328 387.91228267112217 L 329 389.01292282059256 L 330 390.1536362331043 L 331 391.33090309369044 L 332 392.5410907971139 L 333 393.7804651567293 L 334 395.04520192678564 L 335 396.3313986026188 L 336 397.6350864623217 L 337 398.952242812735 L 338 400.2788034019748 L 339 401.61067496019285 L 340 402.9437478298772 L 341 404.2739086467178 L 342 405.59705303191083 L 343 406.90909825673623 L 344 408.20599584033164 L 345 409.4837440417907 L 346 410.73840020803823 L 347 411.9660929393836 L 348 413.16303403521164 L 349 414.3255301829538 L 350 415.44999435426865 L 351 416.53295687327045 L 352 417.57107612265065 L 353 418.5611488546597 L 354 419.5001200751314 L 355 420.38509247005214 L 356 421.2133353455888 L 357 421.9822930539881 L 358 422.68959287935024 L 359 423.3330523589425 L 360 423.91068601746304 L 361 424.4207114934753 L 362 424.86155503910845 L 363 425.23185637605513 L 364 425.5304728928813 L 365 425.7564831706977 L 366 425.90918982631445 L 367 425.9881216641042 L 368 425.9930351299357 L 369 425.9239150626912 L 370 425.7809747410473 L 371 425.56465522537746 L 372 425.275623996804 L 373 424.91477289760127 L 374 424.48321537930406 L 375 423.9822830670125 L 376 423.4135216504948 L 377 422.7786861147669 L 378 422.07973532486534 L 379 421.3188259815218 L 380 420.49830596639174 L 381 419.62070709736935 L 382 418.68873731634477 L 383 417.7052723335077 L 384 416.6733467539819 L 385 415.5961447141681 L 386 414.47699005669045 L 387 413.3193360742607 L 388 412.1267548541091 L 389 410.90292625585863 L 390 409.6516265568546 L 391 408.3767167999853 L 392 407.0821308799473 L 393 405.7718634047179 L 394 404.44995736968906 L 395 403.12049168249524 L 396 401.7875685770303 L 397 400.4553009554878 L 398 399.1277996974832 L 399 397.8091609754164 L 400 396.5034536152162 L 401 395.21470654146486 L 402 393.94689634564395 L 403 392.7039350158597 L 404 391.4896578659117 L 405 390.30781170094775 L 406 389.1620432562257 L 407 388.0558879446514 L 408 386.9927589478169 L 409 385.97593668419904 L 410 385.0085586870143 L 411 384.093609922965 L 412 383.23391358174854 L 413 382.4321223647496 L 414 381.6907102997959 L 415 381.01196510723366 L 416 380.39798114087824 L 417 379.8506529256212 L 418 379.3716693116355 L 419 378.9625082632152 L 420 378.62443229833065 L 421 378.3584845929698 L 422 378.1654857622876 L 423 378.0460313284945 L 424 378.0004898832975 L 425 378.0290019505642 L 426 378.13147955271836 L 427 378.30760648220604 L 428 378.55683927719406 L 429 378.8784088984893 L 430 379.27132310250687 L 431 379.73436950296195 L 432 380.266119311841 L 433 380.864931748107 L 434 381.52895910053576 L 435 382.2561524290624 L 436 383.04426788704353 L 437 383.8908736449291 L 438 384.79335739397857 L 439 385.7489344068691 L 440 386.7546561303223 L 441 387.80741928323704 L 442 388.90397543225413 L 443 390.04094101520695 L 444 391.21480778152886 L 445 392.4219536174021 L 446 393.6586537222468 L 447 394.921092102062 L 448 396.20537334415656 L 449 397.50753463693513 L 450 398.82355799765344 L 451 400.1493826704097 L 452 401.4809176561187 L 453 402.8140543358055 L 454 404.1446791482663 L 455 405.4686862829801 L 456 406.7819903491046 L 457 408.0805389814642 L 458 409.3603253446333 L 459 410.617400496532 L 460 411.84788557338464 L 461 413.04798375844223 L 462 414.2139919975395 L 463 415.3423124253346 L 464 416.4294634669766 L 465 417.4720905809425 L 466 418.4669766098987 L 467 419.4110517076447 L 468 420.30140281151046 L 469 421.1352826309786 L 470 421.91011812479525 L 471 422.6235184404129 L 472 423.2732822912676 L 473 423.85740474912564 L 474 424.37408343054227 L 475 424.82172405834336 L 476 425.19894538096787 L 477 425.504583434494 L 478 425.73769513419654 L 479 425.89756118455324 L 480 425.98368829872237 L 481 425.9958107206408 L 482 425.9338910450483 L 483 425.7981203329059 L 484 425.5889175218535 L 485 425.3069281335245 L 486 424.95302228170806 L 487 424.528291987503 L 488 424.0340478097491 L 489 423.4718148011329 L 490 422.84332780244523 L 491 422.15052608951146 L 492 421.3955473893117 L 493 420.58072128375443 L 494 419.70856202145865 L 495 418.7817607597224 L 496 417.80317726061793 L 497 416.7758310668359 L 498 415.7028921845053 L 499 414.58767130174067 L 500 413.4336095730962 L 501 412.24426800145056 L 502 411.02331645008286 L 503 409.77452231884797 L 504 408.50173891938886 L 505 407.2088935852585 L 506 405.8999755536373 L 507 404.5790236560386 L 508 403.2501138559857 L 509 401.91734667211267 L 510 400.58483452549746 L 511 399.2566890502681 L 512 397.9370084066383 L 513 396.62986463551687 L 514 395.33929109371314 L 515 394.06927000850584 L 516 392.8237201899791 L 517 391.60648493904057 L 518 390.42132018843154 L 519 389.2718829133239 L 520 388.1617198472619 L 521 387.09425653826924 L 522 386.07278677888877 L 523 385.10046244277095 L 524 384.18028375917015 L 525 383.31509005535935 L 526 382.5075509955284 L 527 381.76015834319816 L 528 381.0752182725709 L 529 380.4548442525387 L 530 379.900950525309 L 531 379.4152461997691 L 532 378.99922997781556 L 533 378.65418552992026 L 534 378.38117753420363 L 535 378.1810483912361 L 536 378.05441562470514 L 537 378.00166997596796 L 538 378.0229741983697 L 539 378.11826255504786 L 540 378.2872410217713 L 541 378.52938819418927 L 542 378.84395689669003 L 543 379.2299764879057 L 544 379.68625585574796 L 545 380.2113870927352 L 546 380.80374984026764 L 547 381.46151628844876 L 548 382.18265681602236 L 549 382.9649462530252 L 550 383.8059707468288 L 551 384.70313521038645 L 552 385.65367132970084 L 553 386.6546461058059 L 554 387.70297090490465 L 555 388.7954109887378 L 556 389.9285954957767 L 557 391.09902784244053 L 558 392.30309651224644 L 559 393.53708619959804 L 560 394.7971892738291 L 561 396.079517528128 L 562 397.38011417708947 L 563 398.69496606587484 L 564 400.02001605330645 L 565 401.35117553068864 L 566 402.6843370377243 L 567 404.01538693660194 L 568 405.34021810514287 L 569 406.65474260984445 L 570 407.95490431971416 L 571 409.23669142197247 L 572 410.49614880100705 L 573 411.72939024237996 L 574 412.93261042423245 L 575 414.10209665908457 L 576 415.2342403498006 L 577 416.32554812436973 L 578 417.3726526151462 L 579 418.3723228492856 L 580 419.32147421831985 L 581 420.2171779961043 L 582 421.05667037577155 L 583 421.83736099780594 L 584 422.55684094292445 L 585 423.2128901650999 L 586 423.8034843417936 L 587 424.3268011202569 L 588 424.78122574063053 L 589 425.16535601848994 L 590 425.47800667146123 L 591 425.7182129765599 L 592 425.885233746965 L 593 425.9785536190445 L 594 425.99788464257443 L 595 425.94316716924595 L 596 425.8145700367176 L 597 425.61249004764534 L 598 425.337550745298 L 599 424.9906004895361 L 600 424.5727098390903 L 601 424.085168248218 L 602 423.529480087929 L 603 422.90736000406025 L 604 422.220727626519 L 605 421.4717016460238 L 606 420.6625932766165 L 607 419.7958991241205 L 608 418.8742934825491 L 609 417.9006200822339 L 610 416.87788331513707 L 611 415.80923896442056 L 612 414.6979844668806 L 613 413.5475487382901 L 614 412.3614815930475 L 615 411.143442790777 L 616 409.8971907436786 L 617 408.6265709194748 L 618 407.33550397573435 L 619 406.02797366219005 L 620 404.70801452837605 L 621 403.3796994745182 L 622 402.0471271840861 L 623 400.71440947678934 L 624 399.38565862103974 L 625 398.0649746450283 L 626 396.7564326855728 L 627 395.4640704137685 L 628 394.19187557624633 L 629 392.9437736904767 L 630 391.7236159320924 L 631 390.5351672515998 L 632 389.38209475715007 L 633 388.2679563992151 L 634 387.19618999208217 L 635 386.1701026060459 L 636 385.1928603630255 L 637 384.26747866709684 L 638 383.39681290008303 L 639 382.58354961091425 L 640 381.8301982259425 L 641 381.1390833057903 L 642 380.51233737262606 L 643 379.9518943299979 L 644 379.45948349553123 L 645 379.0366242649008 L 646 378.68462142354406 L 647 378.40456112058115 L 648 378.19730751736523 L 649 378.0635001210035 L 650 378.0035518110775 L 651 378.0176475656512 L 652 378.10574389049765 L 653 378.2675689533063 L 654 378.5026234224554 L 655 378.8101820077629 L 656 379.18929569846074 L 657 379.6387946914871 L 658 380.1572920010608 L 659 380.74318773840133 L 660 381.39467404838666 L 661 382.1097406879186 L 662 382.8861812287806 L 663 383.7215998658503 L 664 384.6134188096581 L 665 385.55888624048174 L 666 386.555084799432 L 667 387.5989405903317 L 668 388.6872326646096 L 669 389.81660295994277 L 670 390.98356666198185 L 671 392.1845229571836 L 672 393.41576614357575 L 673 394.67349706516677 L 674 395.9538348347211 L 675 397.2528288087249 L 676 398.5664707775949 L 677 399.8907073335139 L 678 401.22145237773134 L 679 402.55459972873643 L 680 403.8860357923976 L 681 405.211652254976 L 682 406.5273587598453 L 683 407.82909552880267 L 684 409.11284588902527 L 685 410.3746486670208 L 686 411.6106104113275 L 687 412.8169174062489 L 688 413.98984743955464 L 689 415.1257812878348 L 690 416.2212138840699 L 691 417.2727651329569 L 692 418.2771903406196 L 693 419.23139022651947 L 694 420.13242048667695 L 695 420.97750087869224 L 696 421.7640238005335 L 697 422.4895623366217 L 698 423.15187774638395 L 699 423.74892637217 L 700 424.27886594521533 L 701 424.74006127019373 L 702 425.1310892708181 L 703 425.45074338092206 L 704 425.6980372674716 L 705 425.87220787402015 L 706 425.9727177752153 L 707 425.9992568350924 L 708 425.9517431640382 L 709 425.8303233714716 L 710 425.6353721134617 L 711 425.3674909366795 L 712 425.0275064222496 L 713 424.61646763523026 L 714 424.13564288759073 L 715 423.58651582467496 L 716 422.97078084722693 L 717 422.2903378831037 L 718 421.5472865248088 L 719 420.7439195509342 L 720 419.8827158515044 L 721 418.9663327790476 L 722 417.9975979490005 L 723 416.9795005147445 L 724 415.9151819441953 L 725 414.8079263264095 L 726 413.66115023811267 L 727 412.4783922014221 L 728 411.2633017652901 L 729 410.0196282443621 L 730 408.7512091499928 L 731 407.46195834912186 L 732 406.15585398754445 L 733 404.8369262148402 L 734 403.5092447488403 L 735 402.17690631799917 L 736 400.84402202042344 L 737 399.51470463855964 L 738 398.193055948687 L 739 396.8831540643692 L 740 395.5890408529212 L 741 394.31470946371866 L 742 393.0640920068316 L 743 391.8410474200042 L 744 390.649349561416 L 745 389.4926755649666 L 746 388.37459449401564 L 747 387.29855632858875 L 748 386.2678813200288 L 749 385.2857497459423 L 750 384.35519209705234 L 751 383.47907972623693 L 752 382.66011598860865 L 753 381.9008278999715 L 754 381.2035583393952 L 755 380.5704588199665 L 756 380.0034828500248 L 757 379.50437990536574 L 758 379.07469003101323 L 759 378.71573908921675 L 760 378.4286346683358 L 761 378.2142626652369 L 762 378.073284551747 L 763 378.006135333599 L 764 378.01302220816626 L 765 378.09392392512973 L 766 378.2485908520478 L 767 378.4765457446291 L 768 378.7770852193296 L 769 379.14928192373145 L 770 379.59198739800553 L 771 380.10383561862886 L 772 380.68324721342253 L 773 381.3284343349037 L 774 382.03740617691363 L 775 382.80797511750166 L 776 383.637763469108 L 777 384.52421081521817 L 778 385.46458191085145 L 779 386.45597512250293 L 780 387.49533138150014 L 781 388.5794436231443 L 782 389.70496668251315 L 783 390.86842761638815 L 784 392.06623641945885 L 785 393.2946971017365 L 786 394.5500190929966 L 787 395.82832893906175 L 788 397.1256822538314 L 789 398.4380758901832 L 790 399.761460292187 L 791 401.09175199052106 L 792 402.4248462025299 L 793 403.75662949804916 L 794 405.0829924919125 L 795 406.399842523977 L 796 407.7031162875428 L 797 408.98879236719637 L 798 410.25290364739556 L 799 411.491549553504 L 800 412.7009080875062 L 801 413.87724762126305 L 802 415.0169384109215 L 803 416.11646379694616 L 804 417.17243105521527 L 805 418.1815818656993 L 806 419.1408023664167 L 807 420.0471327616484 L 808 420.89777645475993 L 809 421.6901086774531 L 810 422.42168458881883 L 811 423.09024681920226 L 812 423.69373243560096 L 813 424.23027930710475 L 814 424.69823185073557 L 815 425.0961461399568 L 816 425.4227943600907 L 817 425.67716859689557 L 818 425.8584839466121 L 819 425.9661809378825 L 820 425.99992725807004 L 821 425.95961877865176 L 822 425.8453798765198 L 823 425.6575630502011 L 824 425.3967478321786 L 825 425.06373900067103 L 826 424.65956409638784 L 827 424.1854702519233 L 828 423.6429203435714 L 829 423.03358847743715 L 830 422.3593548237708 L 831 421.62229981546596 L 832 420.8246977286214 L 833 419.96900966497594 L 834 419.0578759578689 L 835 418.0941080251588 L 836 417.0806796942388 L 837 416.0207180259189 L 838 414.9174936654842 L 839 413.77441075070806 L 840 412.5949964079555 L 841 411.3828898687898 L 842 410.1418312406663 L 843 408.87564996635854 L 844 407.5882530077306 L 845 406.2836127903132 L 846 404.96575494588535 L 847 403.6387458908794 L 848 402.3066802789411 L 849 400.97366836635973 L 850 399.6438233293542 L 851 398.32124857235004 L 852 397.0100250664079 L 853 395.71419875687286 L 854 394.43776807910007 L 855 393.1846716207794 L 856 391.9587759689264 L 857 390.7638637790406 L 858 389.6036221032462 L 859 388.4816310134268 L 860 387.40135255446387 L 861 386.3661200616604 L 862 385.37912787531496 L 863 384.4434214841817 L 864 383.561888128232 L 865 382.737247889711 L 866 381.97204529998146 L 867 381.2686414880515 L 868 380.6292068950133 L 869 380.0557145768741 L 870 379.549934116443 L 871 379.1134261630604 L 872 378.7475376170174 L 873 378.4533974735257 L 874 378.23191333906044 L 875 378.08376863082617 L 876 378.0094204679867 L 877 378.0090982611665 L 878 378.08280300457534 L 879 378.2303072729404 L 880 378.4511559232558 L 881 378.74466749918344 L 882 379.1099363337727 L 883 379.54583534400956 L 884 380.05101950857363 L 885 380.62393001807055 L 886 381.2627990849353 L 887 381.9656553981629 L 888 382.73033020603714 L 889 383.55446400808734 L 890 384.43551383562453 L 891 385.3707610983913 L 892 386.35731997311484 L 893 387.3921463080783 L 894 388.4720470162342 L 895 389.5936899278778 L 896 390.7536140724751 L 897 391.94824035792465 L 898 393.17388261429664 L 899 394.42675896797533 L 900 395.7030035111057 L 901 396.9986782303399 L 902 398.30978515807357 L 903 399.6322787086781 L 904 400.962078161666 L 905 402.29508025326686 L 906 403.6271718375654 L 907 404.95424257813124 L 908 406.27219763098043 L 909 407.57697027973165 L 910 408.8645344839724 L 911 410.13091730211437 L 912 411.37221115040444 L 913 412.584585860268 L 914 413.7643004967753 L 915 414.9077149017684 L 916 416.01130092602745 L 917 417.0716533158203 L 918 418.085500220241 L 919 419.04971328691875 L 920 419.961317314943 L 921 420.81749943522084 L 922 421.6156177899392 L 923 422.3532096843496 L 924 423.02799918572344 L 925 423.637904146029 L 926 424.18104262666174 L 927 424.6557387054029 L 928 425.0605276476885 L 929 425.3941604262328 L 930 425.655607575059 L 931 425.84406236604644 L 932 425.9589432981917 L 933 425.99989589190335 L 934 425.9667937827934 L 935 425.85973911159044 L 936 425.67906220897163 L 937 425.42532057628574 L 938 425.0992971653125 L 939 424.70199796236636 L 940 424.23464888419846 L 941 423.6986919952768 L 942 423.0957810581141 L 943 422.4277764303752 L 944 421.6967393245092 L 945 420.90492544761884 L 946 420.05477804119175 L 947 419.1489203421712 L 948 418.190147488628 L 949 417.18141789500925 L 950 416.12584412357864 L 951 415.026683280213 L 952 413.8873269641915 L 953 412.71129080298886 L 954 411.502203604364 L 955 410.26379615921644 L 956 408.99988972976047 L 957 407.7143842585399 L 958 406.4112463346626 L 959 405.0944969543916 L 960 403.7681991138535 L 961 402.4364452721521 L 962 401.1033447235703 L 963 399.7730109178246 L 964 398.4495487674982 L 965 397.13704198181546 L 966 395.8395404658429 L 967 394.5610478239962 L 968 393.30550900641526 L 969 392.0767981363227 L 970 390.87870655592894 L 971 389.71493112776767 L 972 388.58906282756124 L 973 387.50457566381203 L 974 386.4648159583121 L 975 385.47299202064505 L 976 384.5321642485427 L 977 383.6452356846426 L 978 382.81494305878397 L 979 382.0438483434829 L 980 381.33433084864316 L 981 380.68857987989605 L 982 380.10858798322204 L 983 379.5961447966987 L 984 379.1528315283472 L 985 378.7800160771155 L 986 378.47884881205414 L 987 378.25025902270727 L 988 378.09495205167286 L 989 378.0134071181791 L 990 378.0058758393931 L 991 378.0723814540246 L 992 378.2127187506197 L 993 378.42645470076684 L 994 378.7129297952608 L 995 379.0712600791007 L 996 379.5003398790454 L 997 379.99884521530686 L 998 380.56523788685735 L 999 381.1977702177418 L 1000 381.89449044975254 L 1001 382.6532487648253 L 1002 383.4717039185733 L 1003 384.3473304644925 L 1004 385.2774265465442 L 1005 386.2591222360727 L 1006 387.2893883873319 L 1007 388.36504598429605 L 1008 389.4827759499141 L 1009 390.6391293875404 L 1010 391.8305382229396 L 1011 393.05332621402954 L 1012 394.3037202943896 L 1013 395.57786221553187 L 1014 396.8718204520136 L 1015 398.181602332654 L 1016 399.50316636042487 L 1017 400.8324346829979 L 1018 402.1653056754727 L 1019 403.49766659645695 L 1020 404.82540627844793 L 1021 406.14442781335856 L 1022 407.4506611940428 L 1023 408.74007587281585 L 1024 410.0086931982167 L 1025 411.2525986916391 L 1026 412.4679541259478 L 1027 413.65100936881237 L 1028 414.7981139542131 L 1029 415.90572834641335 L 1030 416.9704348616443 L 1031 417.98894821379724 L 1032 418.95812565158883 L 1033 419.874976655916 L 1034 420.73667216747947 L 1035 421.5405533162024 L 1036 422.28413962550945 L 1037 422.9651366661495 L 1038 423.58144313594613 L 1039 424.1311573436309 L 1040 424.6125830767505 L 1041 425.0242348355445 L 1042 425.36484241664203 L 1043 425.63335483243424 L 1044 425.8289435540289 L 1045 425.9510050677809 L 1046 425.99916273750944 L 1047 425.97326796665664 L 1048 425.8734006568008 L 1049 425.6998689611099 L 1050 425.4532083334966 L 1051 425.13417987640713 L 1052 424.74376799234426 L 1053 424.2831773463691 L 1054 423.7538291489554 L 1055 423.1573567706655 L 1056 422.4956007021798 L 1057 421.7706028752302 L 1058 420.9846003619635 L 1059 420.14001847217264 L 1060 419.23946326969815 L 1061 418.2857135310892 L 1062 417.28171217133934 L 1063 416.23055716315065 L 1064 415.1354919777491 L 1065 413.9998955767454 L 1066 412.82727198592255 L 1067 411.6212394831237 L 1068 410.3855194335993 L 1069 409.12392480726623 L 1070 407.8403484133077 L 1071 406.5387508884214 L 1072 405.22314847577485 L 1073 403.8976006323815 L 1074 402.5661975031346 L 1075 401.2330473001494 L 1076 399.9022636263575 L 1077 398.5779527824665 L 1078 397.264201096452 L 1079 395.9650623146767 L 1080 394.6845450935468 L 1081 393.42660063029643 L 1082 392.19511047107113 L 1083 390.99387453392825 L 1084 389.8265993837102 L 1085 388.69688679497267 L 1086 387.60822263825503 L 1087 386.5639661239872 L 1088 385.56733943722276 L 1089 384.62141779518123 L 1090 383.72911995827764 L 1091 382.89319922391957 L 1092 382.1162349308611 L 1093 381.40062450032764 L 1094 380.74857603847147 L 1095 380.1621015229814 L 1096 379.64301059487224 L 1097 379.19290497460935 L 1098 378.81317351979857 L 1099 378.5049879396908 L 1100 378.26929917972564 L 1101 378.10683448726934 L 1102 378.01809516760136 L 1103 378.003355037074 L 1104 378.0626595782173 L 1105 378.1958257993969 L 1106 378.4024427994583 L 1107 378.68187303561336 L 1108 379.0332542906596 L 1109 379.4555023334597 L 1110 379.9473142644731 L 1111 380.5071725360173 L 1112 381.1333496348519 L 1113 381.8239134126385 L 1114 382.5767330478278 L 1115 383.3894856205786 L 1116 384.25966328041864 L 1117 385.1845809845339 L 1118 386.16138478280646 L 1119 387.18706062403675 L 1120 388.2584436561793 L 1121 389.3722279918913 L 1122 390.5249769092653 L 1123 391.71313345626737 L 1124 392.9330314261612 L 1125 394.1809066700505 L 1126 395.45290871163473 L 1127 396.7451126283392 L 1128 398.0535311621577 L 1129 399.3741270228405 L 1130 400.70282534546095 L 1131 402.03552626392525 L 1132 403.36811756162564 L 1133 404.69648736020355 L 1134 406.01653680726736 L 1135 407.32419272391866 L 1136 408.6154201730586 L 1137 409.8862349096949 L 1138 411.13271567483207 L 1139 412.35101629500946 L 1140 413.53737755015453 L 1141 414.68813877312994 L 1142 415.7997491451836 L 1143 416.86877865244685 L 1144 417.8919286696744 L 1145 418.8660421385689 L 1146 419.78811330928096 L 1147 420.65529701503044 L 1148 421.4649174512258 L 1149 422.2144764319969 L 1150 422.9016610986622 L 1151 423.52435105634595 L 1152 424.08062491672297 L 1153 424.5687662267053 L 1154 424.9872687647739 L 1155 425.3348411886152 L 1156 425.61041101972046 L 1157 425.81312795265325 L 1158 425.94236647877426 L 1159 425.99772781632674 L 1160 425.97904114092796 L 1161 425.88636411266947 L 1162 425.7199826981995 L 1163 425.48041028833677 L 1164 425.16838611393877 L 1165 424.7848729649114 L 1166 424.3310542193997 L 1167 423.808330192325 L 1168 423.21831381453757 L 1169 422.56282565591454 L 1170 421.8438883077625 L 1171 421.0637201418571 L 1172 420.2247284653774 L 1173 419.3295020928562 L 1174 418.38080335806677 L 1175 417.3815595904939 L 1176 416.3348540826892 L 1177 415.2439165763848 L 1178 414.1121132967171 L 1179 412.94293656531573 L 1180 411.7399940243046 L 1181 410.50699750446785 L 1182 409.24775157192795 L 1183 407.96614178867793 L 1184 406.6661227231905 L 1185 405.3517057480971 L 1186 404.02694666259464 L 1187 402.6959331777644 L 1188 401.3627723034248 L 1189 400.0315776754353 L 1190 398.7064568625544 L 1191 397.39149869201873 L 1192 396.0907606329516 L 1193 394.80825627653087 L 1194 393.5479429515463 L 1195 392.3137095135652 L 1196 391.10936434537683 L 1197 389.9386236057483 L 1198 388.80509976274794 L 1199 387.71229044702017 L 1200 386.66356765940543 L 1201 385.6621673662065 L 1202 384.7111795142074 L 1203 383.81353849625174 L 1204 382.9720140968057 L 1205 382.18920294543796 L 1206 381.46752050459224 L 1207 380.8091936163736 L 1208 380.2162536313465 L 1209 379.6905301405465 L 1210 379.2336453300472 L 1211 378.8470089754999 L 1212 378.5318140920936 L 1213 378.28903325335654 L 1214 378.1194155901576 L 1215 378.02348447916876 L 1216 378.00153592792066 L 1217 378.0536376614337 L 1218 378.17962891324413 L 1219 378.37912092146934 L 1220 378.6514981283814 L 1221 378.9959200797882 L 1222 379.4113240183607 L 1223 379.8964281629044 L 1224 380.44973566345703 L 1225 381.06953922000747 L 1226 381.7539263505852 L 1227 382.50078529246434 L 1228 383.3078115182736 L 1229 384.17251484690564 L 1230 385.0922271272857 L 1231 386.0641104712863 L 1232 387.0851660103899 L 1233 388.152243149075 L 1234 389.2620492863757 L 1235 390.4111599756171 L 1236 391.59602949097666 L 1237 392.81300176826824 L 1238 394.0583216861883 L 1239 395.32814665321746 L 1240 396.6185584644183 L 1241 397.92557539155234 L 1242 399.24516446920353 L 1243 400.5732539390011 L 1244 401.90574581354355 L 1245 403.2385285212545 L 1246 404.56748959315547 L 1247 405.8885283524063 L 1248 407.19756856746176 L 1249 408.4905710297956 L 1250 409.76354601738876 L 1251 411.012565605519 L 1252 412.2337757868675 L 1253 413.4234083635442 L 1254 414.577792574337 L 1255 415.69336642130827 L 1256 416.76668766078774 L 1257 417.79444442485044 L 1258 418.7734654405006 L 1259 419.7007298150353 L 1260 420.57337635738935 L 1261 421.38871240670056 L 1262 422.1442221408545 L 1263 422.83757433937024 L 1264 423.46662957667513 L 1265 424.0294468235719 L 1266 424.524289436529 L 1267 424.9496305163127 L 1268 425.3041576194272 L 1269 425.5867768078246 L 1270 425.7966160243884 L 1271 425.9330277837755 L 1272 425.99559117031424 L 1273 425.9841131367922 L 1274 425.8986291001281 L 1275 425.73940283208833 L 1276 425.50692564538576 L 1277 425.20191487767266 L 1278 424.825311678105 L 1279 424.37827810330793 L 1280 423.8621935317039 L 1281 423.2786504072665 L 1282 422.6294493258341 L 1283 421.91659347914464 L 1284 421.14228247373427 L 1285 420.30890554377555 L 1286 419.4190341787934 L 1287 418.4754141890106 L 1288 417.48095723280403 L 1289 416.4387318324162 L 1290 415.3519539056429 L 1291 414.223976842714 L 1292 413.05828115898555 L 1293 411.8584637553695 L 1294 410.6282268196451 L 1295 409.3713664028904 L 1296 408.0917607062889 L 1297 406.793358114451 L 1298 405.4801650121758 L 1299 404.15623342224603 L 1300 402.82564850240107 L 1301 401.49251594006853 L 1302 400.1609492837468 L 1303 398.8350572501351 L 1304 397.51893104616886 L 1305 396.2166317450856 L 1306 394.93217775547174 L 1307 393.6695324219568 L 1308 392.4325917958137 L 1309 391.2251726132021 L 1310 390.05100051814804 L 1311 388.9136985665989 L 1312 387.81677604702935 L 1313 386.76361765208856 L 1314 385.7574730347046 L 1315 384.8014467808713 L 1316 383.8984888300565 L 1317 383.0513853727924 L 1318 382.2627502535336 L 1319 381.5350169053108 L 1320 380.8704308410656 L 1321 380.27104272483916 L 1322 379.73870204418836 L 1323 379.27505140335967 L 1324 378.8815214548265 L 1325 378.5593264848308 L 1326 378.3094606665499 L 1327 378.1326949924498 L 1328 378.02957489529086 L 1329 378.0004185651262 L 1330 378.04531596748643 L 1331 378.16412856577927 L 1332 378.35648974876204 L 1333 378.6218059617667 L 1334 378.9592585381875 L 1335 379.36780622557995 L 1336 379.84618839857666 L 1337 380.3929289487053 L 1338 381.006340839108 L 1339 381.6845313101055 L 1340 382.42540771954566 L 1341 383.226683999915 L 1342 384.0858877122875 L 1343 385.0003676753469 L 1344 385.9673021459404 L 1345 386.98370752592274 L 1346 388.0464475684241 L 1347 389.15224305513607 L 1348 390.297681914751 L 1349 391.4792297513395 L 1350 392.6932407501737 L 1351 393.9359689273482 L 1352 395.2035796884856 L 1353 396.4921616608602 L 1354 397.7977387624316 L 1355 399.1162824705467 L 1356 400.44372425245496 L 1357 401.77596811927685 L 1358 403.10890326469536 L 1359 404.438416749366 L 1360 405.76040619190985 L 1361 407.07079242732794 L 1362 408.36553209377894 L 1363 409.64063010888157 L 1364 410.8921519970443 L 1365 412.11623602978705 L 1366 413.3091051415887 L 1367 414.46707858450037 L 1368 415.58658328555634 L 1369 416.6641648719411 L 1370 417.69649832989194 L 1371 418.68039826444766 L 1372 419.6128287283863 L 1373 420.49091259002273 L 1374 421.3119404109614 L 1375 422.07337880640915 L 1376 422.7728782622535 L 1377 423.4082803847849 L 1378 423.97762456069194 L 1379 424.4791540067811 L 1380 424.91132119075246 L 1381 425.27279260630576 L 1382 425.5624528878419 L 1383 425.7794082520645 L 1384 425.92298925586016 L 1385 425.9927528619502 L 1386 425.98848380593756 L 1387 425.9101952605325 L 1388 425.75812879490644 L 1389 425.5327536292998 L 1390 425.2347651871839 L 1391 424.8650829494443 L 1392 424.4248476172062 L 1393 423.91541759205813 L 1394 423.33836478453213 L 1395 422.6954697637759 L 1396 421.9887162633824 L 1397 421.22028506032973 L 1398 420.3925472459193 L 1399 419.5080569094744 L 1400 418.5695432573765 L 1401 417.5799021917536 L 1402 416.54218737481125 L 1403 415.45960080637184 L 1404 414.33548294370087 L 1405 413.17330239410524 L 1406 411.97664521210845 L 1407 410.7492038342274 L 1408 409.49476568549414 L 1409 408.2172014928793 L 1410 406.9204533416749 L 1411 405.6085225116953 L 1412 404.2854571308229 L 1413 402.9553396840001 L 1414 401.62227441620706 L 1415 400.29037466829715 L 1416 398.9637501847654 L 1417 397.64649443261357 L 1418 396.3426719704429 L 1419 395.0563059067446 L 1420 393.791365486094 L 1421 392.55175384154455 L 1422 391.3412959510198 L 1423 390.1637268348616 L 1424 389.02268003095463 L 1425 387.9216763829871 L 1426 386.8641131764439 L 1427 385.8532536558548 L 1428 384.8922169556409 L 1429 383.98396847563396 L 1430 383.1313107309607 L 1431 382.33687470452924 L 1432 381.6031117288002 L 1433 380.932285921891 L 1434 380.3264672013547 L 1435 379.78752489718823 L 1436 379.3171219837792 L 1437 378.9167099485887 L 1438 378.5875243134043 L 1439 378.33058082198164 L 1440 378.146672305839 L 1441 378.0363662378759 L 1442 378.0000029813638 L 1443 378.03769473971266 L 1444 378.14932521025275 L 1445 378.3345499431015 L 1446 378.5927974040069 L 1447 378.9232707378886 L 1448 379.32495022763436 L 1449 379.79659644056596 L 1450 380.3367540528648 L 1451 380.94375634015694 L 1452 381.61573032040104 L 1453 382.35060253321075 L 1454 383.14610543777746 L 1455 383.9997844096541 L 1456 384.9090053148072 L 1457 385.8709626375697 L 1458 386.8826881374131 L 1459 387.94106000782784 L 1460 389.0428125090501 L 1461 390.18454604491393 L 1462 391.362737652733 L 1463 392.57375187384605 L 1464 393.81385197128355 L 1465 395.0792114599389 L 1466 396.36592591367133 L 1467 397.6700250129046 L 1468 398.98748479554826 L 1469 400.31424007343975 L 1470 401.64619697599466 L 1471 402.97924558236014 L 1472 404.3092726030935 L 1473 405.6321740722363 L 1474 406.9438680106161 L 1475 408.2403070213094 L 1476 409.51749077839406 L 1477 410.77147837045925 L 1478 411.9984004607841 L 1479 413.19447122666367 L 1480 414.35600004104185 L 1481 415.47940286040614 L 1482 416.56121328380624 L 1483 417.5980932488698 L 1484 418.58684333181503 L 1485 419.524412619676 L 1486 420.407908124279 L 1487 421.2346037089219 L 1488 422.0019485002125 L 1489 422.70757475911 L 1490 423.3493051868817 L 1491 423.92515964343335 L 1492 424.43336125728007 L 1493 424.87234190830753 L 1494 425.2407470664044 L 1495 425.5374399710355 L 1496 425.7615051388593 L 1497 425.9122511885679 L 1498 425.9892129742305 L 1499 425.99215302056 L 1500 425.92106225567306 L 1501 425.7761600390823 L 1502 425.5578934848351 L 1503 425.26693608188674 L 1504 424.90418561596533 L 1505 424.470761399341 L 1506 423.9680008170466 L 1507 423.3974552002079 L 1508 422.7608850392161 L 1509 422.06025455151195 L 1510 421.2977256207467 L 1511 420.4756511260167 L 1512 419.596567681759 L 1513 418.66318781070754 L 1514 417.6783915740626 L 1515 416.64521768469916 L 1516 415.5668541308354 L 1517 414.44662833909354 L 1518 413.28799690730466 L 1519 412.0945349387424 L 1520 410.8699250106899 L 1521 409.61794581138406 L 1522 408.34246048039694 L 1523 407.0474046884315 L 1524 405.7367744933144 L 1525 404.4146140096551 L 1526 403.08500293022195 L 1527 401.75204393753415 L 1528 400.41985004452016 L 1529 399.09253190329673 L 1530 397.7741851212339 L 1531 396.46887762344284 L 1532 395.1806371006799 L 1533 393.9134385813997 L 1534 392.6711921663036 L 1535 391.45773096323194 L 1536 390.27679925962525 L 1537 389.1320409690557 L 1538 388.0269883874713 L 1539 386.96505129385196" stroke-linecap="round" stroke-linejoin="round" stroke-miterlimit="10" stroke-width="3"/></g></svg>